<svg xmlns="http://www.w3.org/2000/svg">
  <symbol id="gray-star" viewBox="0 0 16 16">
    <path fill-rule="evenodd" clip-rule="evenodd"
      d="M7.985 11.65l-3.707 2.266a.546.546 0 0 1-.814-.598l1.075-4.282L1.42 6.609a.546.546 0 0 1 .29-.975l4.08-.336 1.7-3.966a.546.546 0 0 1 1.004.001l1.687 3.965 4.107.337c.496.04.684.67.29.975l-3.131 2.426 1.073 4.284a.546.546 0 0 1-.814.6l-3.722-2.27z"
      fill="#CCC"></path>
  </symbol>
  <symbol id="half-filled-star" viewBox="0 0 16 16">
    <path fill-rule="evenodd" clip-rule="evenodd"
      d="M7.985 11.65l-3.707 2.266a.546.546 0 0 1-.814-.598l1.075-4.282L1.42 6.609a.546.546 0 0 1 .29-.975l4.08-.336 1.7-3.966a.546.546 0 0 1 1.004.001l1.687 3.965 4.107.337c.496.04.684.67.29.975l-3.131 2.426 1.073 4.284a.546.546 0 0 1-.814.6l-3.722-2.27z"
      fill="#CCC"></path>
    <path fill-rule="evenodd" clip-rule="evenodd"
      d="M4.278 13.915l3.707-2.266V1a.538.538 0 0 0-.494.33l-1.7 3.967-4.08.336a.546.546 0 0 0-.29.975l3.118 2.427-1.075 4.282a.546.546 0 0 0 .814.598z"
      fill="#FC0"></path>
  </symbol>
  <symbol id="filled-star" viewBox="0 0 16 16">
    <path fill-rule="evenodd" clip-rule="evenodd"
      d="M7.985 11.65l-3.707 2.265a.546.546 0 0 1-.814-.598l1.075-4.282L1.42 6.609a.546.546 0 0 1 .29-.976l4.08-.336 1.7-3.966a.546.546 0 0 1 1.004.001l1.687 3.965 4.107.337c.496.04.684.67.29.976l-3.131 2.425 1.073 4.285a.546.546 0 0 1-.814.598L7.985 11.65z"
      fill="#FC0"></path>
  </symbol>
</svg>